<?xml version="1.0" encoding="utf-8"?>
<svg xmlns="http://www.w3.org/2000/svg" viewBox="0 0 1542.68 1024.85">
  <defs>
    <style>
      .cls-1 {
        fill: #152d69;
      }

      .cls-2 {
        fill: #4874cb;
      }

      .cls-3 {
        fill: #68423e;
      }

      .cls-4 {
        fill: url(#linear-gradient-2);
      }

      .cls-5 {
        fill: #8090b3;
      }

      .cls-6 {
        fill: #0d1a44;
      }

      .cls-7 {
        fill: #00123f;
      }

      .cls-8 {
        mask: url(#mask-1);
      }

      .cls-9 {
        fill: #183577;
      }

      .cls-10 {
        fill: url(#linear-gradient-10);
      }

      .cls-11 {
        fill: #6d7fa8;
      }

      .cls-12 {
        fill: #304a83;
      }

      .cls-13 {
        fill: #143172;
      }

      .cls-14 {
        fill: #212f3e;
      }

      .cls-15 {
        fill: #040d2a;
      }

      .cls-16 {
        stroke-width: 11px;
      }

      .cls-16, .cls-17, .cls-18, .cls-19, .cls-20, .cls-21, .cls-22, .cls-23, .cls-24, .cls-25, .cls-26, .cls-27 {
        stroke-miterlimit: 10;
      }

      .cls-16, .cls-18, .cls-20, .cls-21, .cls-22, .cls-24, .cls-26, .cls-27 {
        fill: none;
      }

      .cls-16, .cls-20, .cls-21, .cls-24, .cls-27 {
        stroke: #00123f;
      }

      .cls-28 {
        fill: #1a2c41;
      }

      .cls-29 {
        fill: url(#linear-gradient-13);
      }

      .cls-29, .cls-30 {
        opacity: .73;
      }

      .cls-31 {
        fill: #2d3252;
      }

      .cls-32 {
        fill: #223e7a;
      }

      .cls-33 {
        mask: url(#mask);
      }

      .cls-17 {
        fill: #844c38;
        stroke: #734a44;
      }

      .cls-34 {
        fill: #7082a9;
      }

      .cls-35 {
        fill: #81735e;
      }

      .cls-36 {
        fill: #2b4680;
      }

      .cls-37 {
        fill: #354e86;
      }

      .cls-38 {
        fill: #2e4882;
      }

      .cls-39 {
        filter: url(#luminosity-noclip-2);
      }

      .cls-40 {
        fill: url(#linear-gradient-4);
      }

      .cls-18 {
        stroke: #604405;
      }

      .cls-30 {
        fill: url(#linear-gradient-12);
      }

      .cls-19 {
        fill: #e9c064;
        stroke: #5f451b;
      }

      .cls-41 {
        fill: #98947f;
      }

      .cls-42 {
        fill: #2b3439;
      }

      .cls-43 {
        mask: url(#mask-2);
      }

      .cls-44 {
        filter: url(#luminosity-noclip-3);
      }

      .cls-45 {
        fill: #5d7292;
      }

      .cls-46 {
        fill: url(#linear-gradient-3);
      }

      .cls-47 {
        fill: url(#linear-gradient-5);
      }

      .cls-48 {
        fill: #d5c2bf;
      }

      .cls-49 {
        fill: #1f3155;
      }

      .cls-50 {
        fill: #f9f9b7;
      }

      .cls-51 {
        opacity: .06;
      }

      .cls-51, .cls-52 {
        mix-blend-mode: screen;
      }

      .cls-53 {
        fill: #663c32;
      }

      .cls-54 {
        fill: #919173;
      }

      .cls-55, .cls-23 {
        fill: #fff8e5;
      }

      .cls-56 {
        isolation: isolate;
      }

      .cls-57 {
        fill: #7284aa;
      }

      .cls-20 {
        stroke-width: 16px;
      }

      .cls-58 {
        fill: #8a735a;
      }

      .cls-21 {
        stroke-width: 5px;
      }

      .cls-59 {
        fill: #d7c4be;
      }

      .cls-60 {
        fill: url(#linear-gradient-8);
      }

      .cls-61 {
        fill: #152a43;
      }

      .cls-62 {
        fill: #0d1c47;
      }

      .cls-63 {
        fill: #c9a99a;
      }

      .cls-22, .cls-23 {
        stroke: #7f5e33;
      }

      .cls-64 {
        fill: #192a43;
      }

      .cls-65 {
        fill: #857460;
      }

      .cls-66 {
        fill: #0d1b48;
      }

      .cls-67 {
        fill: #7f5e33;
      }

      .cls-68 {
        fill: #ac8e72;
      }

      .cls-69 {
        fill: #1d3a78;
      }

      .cls-70 {
        fill: #412c3b;
      }

      .cls-71 {
        fill: #20346f;
      }

      .cls-24 {
        stroke-width: 7px;
      }

      .cls-72 {
        fill: url(#linear-gradient-7);
      }

      .cls-73 {
        fill: #27427d;
      }

      .cls-74 {
        fill: #181d3a;
      }

      .cls-75 {
        fill: url(#linear-gradient-9);
      }

      .cls-76 {
        fill: #24407c;
      }

      .cls-77 {
        fill: #6b7da6;
      }

      .cls-78 {
        fill: url(#linear-gradient-11);
      }

      .cls-79 {
        fill: #e0d0c3;
      }

      .cls-80 {
        fill: #324c84;
      }

      .cls-81 {
        fill: #172a43;
      }

      .cls-82 {
        fill: url(#linear-gradient-6);
      }

      .cls-83 {
        fill: #faf3c9;
      }

      .cls-84 {
        fill: #0d224f;
      }

      .cls-85 {
        fill: #41414b;
      }

      .cls-86 {
        fill: #3b4066;
      }

      .cls-25 {
        fill: #debd87;
      }

      .cls-25, .cls-26 {
        stroke: #332704;
      }

      .cls-87 {
        fill: #6175a1;
      }

      .cls-88 {
        fill: #29447f;
      }

      .cls-89 {
        fill: #040b27;
      }

      .cls-90 {
        fill: #3f2d39;
      }

      .cls-91 {
        fill: #81735f;
      }

      .cls-92 {
        fill: #2c4a80;
      }

      .cls-93 {
        fill: #826f4f;
      }

      .cls-94 {
        fill: #bcac71;
      }

      .cls-95 {
        fill: url(#linear-gradient);
      }

      .cls-96 {
        fill: #4f2f34;
      }

      .cls-97 {
        fill: #8796b7;
      }

      .cls-98 {
        fill: #784a3a;
      }

      .cls-99 {
        fill: #215682;
      }

      .cls-27 {
        stroke-width: 13px;
      }

      .cls-100 {
        fill: #5f739f;
      }

      .cls-101 {
        fill: #6d4038;
      }

      .cls-52 {
        opacity: .46;
      }

      .cls-102 {
        fill: #1e2657;
      }

      .cls-103 {
        filter: url(#luminosity-noclip);
      }
    </style>
    <path id="arc" d="M97 90 Q100 80 103 90" fill="none" stroke="#ffffff" stroke-width="1" stroke-linecap="round"/>
  </defs>
  <g class="cls-56" style="" transform="matrix(1.006948, 0, 0, 1, -4.840931, -41.231823)">
    <g id="Layer_2" data-name="Layer 2">
      <g id="Layer_1-2" data-name="Layer 1">
        <g transform="matrix(1.72511, 0, 0, 1.503416, -443.178894, -140.138931)" style="">
          <path class="cls-62" d="M -240.01 393.497 C -237.44 322.886 -232.93 300.804 -228.32 298.875 C -221.7 296.083 -213.87 334.663 -209.55 328.774 C -206.55 324.713 -209.58 305.22 -204.94 293.697 C -202 286.336 -196.9 284.661 -193.07 289.585 C -187.74 296.387 -186.78 313.393 -186.54 317.454 C -185.17 341.617 -191.56 362.582 -190.97 363.597 C -190.14 364.968 -181.88 316.896 -174.67 319.535 C -170.25 321.109 -166.34 341.566 -167.38 357.709 C -168.53 375.273 -175.46 386.339 -175.04 387.608 C -174.56 389.182 -166.37 366.745 -162.02 372.126 C -159.19 375.628 -158.85 389.893 -158.96 400.502 C -151.24 415.985 -139.09 436.341 -122.73 449.235 C -98.115 468.677 -77.027 460.859 -66.207 454.666 C -64.147 453.194 -57.245 448.93 -50.872 458.778 C -42.856 471.164 -38.893 500.861 -42.056 530.963 C -39.151 526.699 -6.702 480.048 8.351 514.973 C 9.589 517.866 10.76 521.42 11.796 525.785 C 50.899 497.866 101.08 474.768 159.268 479.388 C 180.401 481.063 200.115 486.19 218.198 493.297 C 218.525 486.749 219.402 476.697 222.217 468.525 C 228.849 449.387 238.678 462.636 245.793 443.752 C 249.948 432.737 247.741 425.224 253.269 408.167 C 253.799 406.543 258.37 392.685 264.191 386.492 C 273.513 376.644 285.561 386.999 295.233 410.452 C 295.638 409.792 302.663 398.878 309.891 408.929 C 315.026 416.086 318.179 430.909 317.942 446.849 C 326.69 447.153 333.829 442.179 339.695 433.955 C 348.758 421.264 351.043 406.188 357.326 407.152 C 363.643 408.117 363.733 423.701 373.427 432.94 C 381.106 440.25 384.821 434.107 388.762 443.245 C 392.601 452.179 393.141 467.56 392.972 479.337 C 396.541 474.616 401.8 469.489 407.924 471.063 C 413.622 472.535 416.493 478.83 421.334 483.449 C 431.298 492.891 440.148 486.038 444.719 483.957 C 471.404 471.723 549.992 530.405 629.268 511.825 C 671.253 501.977 665.049 481.774 718.958 465.428 C 763.982 451.722 801.611 455.682 827.045 461.57 C 827.867 444.666 830.107 438.118 831.931 435.275 C 835.59 429.539 839.373 435.681 841.423 429.082 C 843.438 422.584 840.848 413.142 843.145 405.883 C 844.271 402.279 845.847 401.568 848.324 400.451 C 854.37 397.71 859.494 403.903 860.968 405.883 C 864.639 410.706 864.358 413.599 866.429 414.411 C 870.572 415.985 872.396 404.716 877.924 398.167 C 881.877 393.497 888.958 389.74 893.451 398.929 C 897.786 407.812 899.024 427.305 896.614 446.9 C 900.927 428.067 908.076 404.157 919.032 395.832 C 929.48 387.913 933.623 401.568 948.351 402.025 C 950.376 402.076 972.94 402.025 992.047 364.917 C 1004.9 339.891 1003.7 322.429 1016.48 306.134 C 1019.99 301.667 1025.24 296.387 1042.64 292.225 C 1062.24 287.504 1077.21 288.925 1079.43 289.128 C 1114.43 292.123 1116.5 250.751 1160.49 239.634 C 1187.49 232.781 1200.77 244.812 1225.18 226.487 C 1228.47 223.999 1236.1 217.908 1247.59 210.242 C 1260.97 201.359 1272.07 195.369 1279.5 191.663 C 1279.01 179.226 1279.62 175.114 1280.46 174.15 C 1282.11 172.221 1284.68 182.475 1286.41 180.343 C 1288.14 178.16 1286.81 166.079 1288.51 163.845 C 1290.35 161.459 1293.51 173.541 1294.83 171.561 C 1296.65 168.871 1292.35 143.743 1294.46 140.088 C 1296.11 137.194 1299.61 151.256 1303.08 148.362 C 1306.42 145.57 1306.59 129.631 1309.22 129.275 C 1310.62 129.072 1311.76 133.438 1312.28 135.469 C 1316.39 151.307 1313.58 174.15 1314.38 174.658 C 1315.3 175.267 1317.94 145.367 1320.33 145.773 C 1322.7 146.18 1323.36 176.13 1325.7 176.18 C 1327.3 176.231 1327.99 162.373 1329.91 162.271 C 1331.78 162.17 1332.07 175.114 1334.7 179.277 C 1339.41 186.79 1349.27 162.525 1353.1 154.505 C 1367.54 124.453 1386.46 138.007 1413.48 145.215 C 1430.87 149.834 1455.43 152.88 1486.49 145.215 C 1485.91 364.917 1485.34 584.62 1484.77 804.322 L -241.05 800.616 C -240.71 664.927 -240.38 529.237 -240.03 393.548 L -240.01 393.497 Z" style=""/>
        </g>
      </g>
    </g>
  </g>
</svg>